<mxfile host="app.diagrams.net" modified="2020-05-03T02:04:05.958Z" agent="5.0 (Windows NT 10.0; Win64; x64) AppleWebKit/537.36 (KHTML, like Gecko) Chrome/81.0.4044.129 Safari/537.36 OPR/68.0.3618.63" etag="dUTFZUOjqqcwE26qsyDi" version="13.0.5" type="github">
  <diagram id="Y50ijJXm1GYGvzPL7eSL" name="Page-1">
    <mxGraphModel dx="998" dy="548" grid="1" gridSize="10" guides="1" tooltips="1" connect="1" arrows="1" fold="1" page="1" pageScale="1" pageWidth="850" pageHeight="1100" math="0" shadow="0">
      <root>
        <mxCell id="0" />
        <mxCell id="1" parent="0" />
      </root>
    </mxGraphModel>
  </diagram>
</mxfile>
